<?xml version="1.0" encoding="UTF-8"?><svg id="Layer_1" xmlns="http://www.w3.org/2000/svg" viewBox="0 0 29.48 29.48"><defs><style>.cls-1{fill:#010101;}.cls-2{fill:#f4ece6;}.cls-3{fill:#fff;}.cls-4{fill:#1d1d1b;}</style></defs><rect class="cls-2" width="29.48" height="29.48" rx="12" ry="12"/><polygon class="cls-4" points="25.1 16.75 4.38 16.68 6.02 13.26 23.07 13.26 25.1 16.75"/><path class="cls-4" d="M9.49,14.28s.42-.5,1.25-.46,3.85,.52,4.36-.72c.38-.71,.81-2.71-1.31-3.76s-6.98-3.25-6.98-3.25l14.39-.75s-.92,2.23-1.26,5.1-3.47,4.69-4.84,5-4.05-.41-4.05-.41"/><path class="cls-4" d="M9.49,14.28s.42-.5,1.25-.46,3.85,.52,4.36-.72c.38-.71,.81-2.71-1.31-3.76s-6.98-3.25-6.98-3.25l14.39-.75s-.92,2.23-1.26,5.1-3.47,4.69-4.84,5-4.05-.41-4.05-.41c0,0-.83-.14-1.19-.03s-.37-.71-.37-.71"/><g><path class="cls-4" d="M9.49,14.28s.42-.5,1.25-.46,3.85,.52,4.36-.72c.38-.71,.81-2.71-1.31-3.76s-6.98-3.25-6.98-3.25l14.39-.75s-.92,2.23-1.26,5.1-3.47,4.69-4.84,5-4.05-.41-4.05-.41"/><path class="cls-3" d="M14.28,15.73c-1.42,0-3.2-.47-3.29-.5l.12-.44s2.65,.7,3.94,.41c.65-.15,1.74-.66,2.7-1.49,.79-.68,1.78-1.8,1.96-3.31,.27-2.23,.88-4.1,1.15-4.83l-13.11,.68c1.49,.68,4.57,2.09,6.14,2.87,.83,.41,1.38,1,1.62,1.75,.28,.89,.07,1.79-.2,2.31-.52,1.23-2.9,1.01-4.18,.89-.16-.01-.3-.03-.4-.03-.69-.04-1.04,.36-1.06,.38l-.35-.29s.51-.59,1.43-.54c.11,0,.25,.02,.41,.03,1,.09,3.34,.31,3.72-.62v-.02c.2-.35,.45-1.16,.19-1.97-.2-.63-.67-1.13-1.39-1.49-2.09-1.04-6.92-3.22-6.97-3.25l.08-.43,14.75-.77-.14,.33s-.91,2.24-1.24,5.04c-.2,1.66-1.26,2.88-2.11,3.61-1.02,.87-2.19,1.42-2.9,1.58-.26,.06-.55,.08-.87,.08Z"/></g><g><path class="cls-4" d="M9.49,14.28s.42-.5,1.25-.46,3.85,.52,4.36-.72c.38-.71,.81-2.71-1.31-3.76s-6.98-3.25-6.98-3.25l14.39-.75s-.92,2.23-1.26,5.1-3.47,4.69-4.84,5-4.05-.41-4.05-.41c0,0-.83-.14-1.19-.03s-.37-.71-.37-.71"/><path class="cls-2" d="M14.28,15.73c-1.38,0-3.1-.45-3.28-.5-.3-.05-.85-.1-1.08-.04-.13,.04-.26,.02-.37-.06-.26-.2-.29-.71-.29-.86v-.08l.05-.06s.51-.59,1.43-.54c.11,0,.25,.02,.41,.03,1,.09,3.34,.31,3.72-.62v-.02c.2-.35,.45-1.16,.19-1.97-.2-.63-.67-1.13-1.39-1.49-2.09-1.04-6.92-3.22-6.97-3.25l.08-.43,14.75-.77-.14,.33s-.91,2.24-1.24,5.04c-.2,1.66-1.26,2.88-2.11,3.61-1.02,.87-2.19,1.42-2.9,1.58-.26,.06-.55,.08-.87,.08Zm-4.04-1.02c.38,0,.78,.06,.84,.08h.02s2.65,.71,3.94,.42c.65-.15,1.74-.66,2.7-1.49,.79-.68,1.78-1.8,1.96-3.31,.27-2.23,.88-4.1,1.15-4.83l-13.11,.68c1.49,.68,4.57,2.09,6.14,2.87,.83,.41,1.38,1,1.62,1.75,.28,.89,.07,1.79-.2,2.31-.52,1.23-2.9,1.01-4.18,.89-.16-.01-.3-.03-.4-.03-.54-.03-.88,.21-1,.32,.01,.17,.05,.34,.09,.39,.12-.03,.28-.04,.43-.04Z"/></g><path class="cls-4" d="M9.49,14.28s.42-.5,1.25-.46,3.85,.52,4.36-.72c.38-.71,.81-2.71-1.31-3.76s-6.98-3.25-6.98-3.25l14.39-.75s-.92,2.23-1.26,5.1-3.47,4.69-4.84,5-4.05-.41-4.05-.41"/><path class="cls-4" d="M9.49,14.28s.42-.5,1.25-.46,3.85,.52,4.36-.72c.38-.71,.81-2.71-1.31-3.76s-6.98-3.25-6.98-3.25l14.39-.75s-.92,2.23-1.26,5.1-3.47,4.69-4.84,5-4.05-.41-4.05-.41c0,0-.83-.14-1.19-.03s-.37-.71-.37-.71"/><path class="cls-4" d="M14.81,10.1l.02,.14c.32,1.89-.75,1.91-1.29,2.07s-2.83,.43-4.75,1.04c-1.92,.61-.26,2.63-.26,2.63h0c.25-.21,.6-.35,.98-.35,.19,0,.37,.03,.53,.09l-.25-.64c-.07,.07-.3-.8-.3-.8,0,0,.42-.5,1.25-.46,.82,.05,3.85,.52,4.36-.72,.3-.56,.63-1.93-.29-3Z"/><g><path class="cls-4" d="M9.89,13.04c-.37,.09-.74,.19-1.1,.31-1.92,.61-.26,2.63-.26,2.63h0"/><path class="cls-2" d="M8.53,16.21h-.11l-.07-.08s-.94-1.16-.66-2.08c.13-.43,.48-.74,1.03-.92,.34-.11,.71-.21,1.11-.31l.11,.44c-.39,.1-.75,.2-1.08,.3-.41,.13-.65,.33-.74,.61-.1,.35,.05,.77,.2,1.07,.17,.34,.38,.59,.38,.6l-.17,.14v.23Z"/></g><path class="cls-4" d="M14.81,10.1l.02,.14c.32,1.89-.75,1.91-1.29,2.07s-2.83,.43-4.75,1.04c-1.92,.61-.26,2.63-.26,2.63h0c.25-.21,.6-.35,.98-.35,.19,0,.37,.03,.53,.09l-.25-.64c-.07,.07-.3-.8-.3-.8,0,0,.42-.5,1.25-.46,.82,.05,3.85,.52,4.36-.72,.3-.56,.63-1.93-.29-3Z"/><path class="cls-2" d="M10.06,15.54l-.2-.47c-.07-.16-.14-.31-.2-.48,0,0,.01,.03,0-.01,0-.02-.01-.03-.02-.05-.01-.03-.02-.05-.04-.08-.02-.05-.05-.09-.08-.13-.03-.05-.06-.09-.1-.14v.16s.02-.03,.04-.04c.02-.01,.03-.03,.05-.04l.03-.02s.05-.04,.02-.02c.13-.1,.28-.18,.44-.23,.32-.1,.64-.07,.96-.04,.68,.06,1.36,.12,2.04,.09,.36-.02,.72-.06,1.06-.16,.29-.08,.58-.21,.79-.44,.05-.05,.1-.11,.13-.17,.02-.03,.03-.06,.05-.09,0-.02,.02-.04,.03-.06-.01,.02,0,0,0,0,0,0,0-.02,.01-.03,.07-.15,.13-.31,.18-.47,.12-.4,.16-.83,.1-1.25-.03-.25-.1-.49-.2-.72-.05-.11-.11-.22-.17-.33-.07-.11-.15-.23-.24-.32-.07-.07-.14-.13-.22-.18-.17-.13-.36-.25-.55-.34-.13-.07-.26-.12-.4-.17-.06-.02-.12,.02-.14,.08-.02,.06,.02,.12,.08,.14,.24,.09,.47,.21,.68,.35,.13,.09,.23,.15,.34,.26s.2,.24,.28,.38c.12,.21,.21,.43,.26,.66,.09,.41,.08,.83-.01,1.23-.02,.09-.04,.17-.07,.25-.01,.04-.02,.07-.04,.11l-.02,.06v.03l-.02,.02s0-.01,0,0c-.01,.03-.03,.06-.04,.09l-.02,.04v.02s-.02,.02-.02,.03c0-.01,0-.01,0,0-.03,.06-.06,.11-.1,.17,0,0-.02,.03,0,0v.02s-.04,.03-.05,.04c-.02,.02-.05,.05-.07,.07l-.04,.03h-.02s.02,0,0,.02c-.03,.02-.06,.04-.09,.06-.06,.04-.13,.07-.19,.1,0,0-.05,.02-.03,.01l-.05,.02s-.07,.03-.11,.04c-.16,.05-.32,.09-.48,.12s-.33,.04-.51,.06c-.68,.04-1.36,0-2.03-.07-.3-.03-.61-.07-.91-.02s-.63,.2-.86,.43c-.01,.01-.02,.02-.03,.04-.04,.05-.04,.11,0,.16l.02,.02s0,0,0,.01,.02,.03,.03,.05c.05,.08,.09,.16,.12,.24,.02,.06,.05,.11,.07,.17l.27,.63,.08,.18c.02,.06,.11,.07,.16,.04,.06-.03,.06-.1,.04-.16h0Z"/><path class="cls-4" d="M4.38,16.68l.17,.65s.04,.07,.14,.07,20.18-.02,20.18-.02c0,0,.06,0,.09-.08s.15-.56,.15-.56l-20.72-.07Z"/><path class="cls-4" d="M20.51,24.09l-.25-1.05s-.05-.03-.09-.02c-.04,0-.99,0-1.43-.21-.45-.21-.83-.5-1.44-.53-.61-.03-4.08-.17-4.08-.17h-.25s0,0-.01,.02l-.31,.21c-.08,0-.17,0-.25,0-.07,0-.15,0-.22,0-.02,0-.03,0-.04,0-.13,.02-.48,.02-1.02,.35-.55,.34-1.23,.24-1.23,.24h-.54s-.14-.01-.17,.12l-.56,2.66s0,.02,.04,.02,1.12,0,1.12,0c0,0,.43,0,1.08-.33,.66-.33,1.16-.3,1.16-.3l1.7-.04,2.96-.03h.7s.65-.06,1.12,.16c.47,.22,.72,.54,1.29,.56,.57,.01,1.2-.03,1.2-.03l-.47-1.6Z"/><path class="cls-4" d="M17.5,24.98c.33,0,.67,.04,.98,.17,.47,.22,.72,.54,1.29,.56,.4,0,.8,0,1.19-.03v.03l-.07,.3-.69,.04s-.87,.05-1.53-.36c-.67-.41-1.12-.35-1.12-.35h-1.39s-2.47,.07-3.02,.08c-.56,0-1.16,.02-1.46,.07-.3,.04-1.08,.43-1.29,.49-.21,.06-.97,.08-.97,.08,0,0-.66,0-.73,0-.07,0-.09-.05-.09-.05v-.3s.02,.02,.04,.02c.03,0,1.12,0,1.12,0,0,0,.43,0,1.08-.33,.66-.33,1.16-.3,1.16-.3l1.7-.04,2.96-.03h.7s.09-.02,.14-.02Z"/><path class="cls-4" d="M12.65,22.33s.2,0,.29-.26l-.06,2.38s-.03,.12-.18,.16c-.12,0-.2,.27-.2,.27l.15-2.55Z"/><path class="cls-4" d="M16.78,20.92c-.1-.11-.62-.54-.93-.78-.31-.24-1.21-1.02-1.22-1.03-.04,.04-.07,.07-.1,.11-.57,.6-.34,1.26,.02,1.75l.23,.28c.29,.32,.57,.52,.57,.52,0,0,1.97,1.15,2.07,1.55h0s-.21-1.27-.29-1.69c-.08-.42-.24-.61-.34-.72Z"/><path class="cls-2" d="M16.48,24.84h-.01l.21-.06s0,0,0,0c0,0,.51-.03,.52-1.39-.11-.22-1.09-.9-1.96-1.41h-.02s-1.16-.86-1.25-1.83c-.04-.4,.1-.76,.39-1.07,.78-.95,2.23-.82,2.42-.79l1.82-.02s0-.02,.01-.02c.02-.18,.21-.2,.33-.2l.47-.19h2.39v.45h-2.3l-.46,.19h-.04c-.06,.1-.12,.16-.14,.17l-.06,.05-2.03,.03h-.02s-1.38-.17-2.03,.63h-.01c-.21,.24-.3,.47-.28,.74,.04,.39,.32,.77,.55,1.02,.23,.26,.46,.43,.5,.46,.08,.05,.56,.33,1.04,.66,1.05,.71,1.14,.95,1.14,1.12,0,.79-.16,1.34-.48,1.64-.22,.21-.62-.17-.68-.17Zm2.57-6.52h0v0Z"/><path class="cls-2" d="M13,24.66v-.5c1.16,0,1.51-.37,1.54-.4,.1-.14,.1-.23,.08-.28-.1-.39-1.36-.99-1.91-1.25l.33-.39c1.23,.58,1.93,.99,2.06,1.51,.06,.23,0,.47-.16,.71-.04,.06-.47,.59-1.94,.6Zm1.54-.9h0Z"/><path class="cls-4" d="M10.47,17.78c-.31,.2-2.34,1.67,1.1,3.66,2.57,1.15,3.74,1.68,3.17,2.47,0,0-.35,.49-1.74,.5-.01,0-.09-.03-.13,.03-.04,.07-.05,.11-.12,.13-.07,.02-.14,.06-.18,.14s-.08,.16-.08,.16v.19h.51l3.67-.06s.75,.04,.75-1.64c0-.37-2.08-1.58-2.08-1.58,0,0-1.92-1.39-.81-2.55,.74-.91,2.24-.72,2.24-.72l1.93-.03s.11-.09,.13-.21c0-.01,.16-.02,.16-.02l.47-.19h2.35l.07-.3H10.47Z"/><path class="cls-1" d="M9.5,17.92c-.77,0-1.39-.46-1.39-1.11,0-.61,.63-1.18,1.4-1.18s1.38,.5,1.38,1.19c0,.61-.62,1.1-1.39,1.1Z"/><g><path class="cls-1" d="M8.1,16.81c0-.61,.63-1.18,1.4-1.18s1.38,.5,1.38,1.19"/><path class="cls-2" d="M8.11,16.78s0,.14,0,.09v-.07s.02-.06,.02-.1c.01-.06,.03-.11,.06-.17,.05-.11,.12-.22,.21-.31,.18-.2,.43-.35,.69-.42,.51-.15,1.12-.03,1.5,.36,.19,.2,.31,.47,.31,.75,0,.04,0-.04,0-.04,0-.05,0-.1,0-.16,0-.26-.08-.5-.24-.7s-.39-.35-.64-.43c-.56-.18-1.21-.04-1.61,.41-.1,.11-.18,.24-.23,.38-.06,.15-.06,.31-.06,.47,0,.02,0,.05,0,.07,0,0,0,.02,0,.01,0-.05,0-.09,0-.14h0Z"/></g><path class="cls-2" d="M9.5,16.52c.39,0,.71,.26,.71,.58s-.32,.58-.71,.58-.71-.26-.71-.58,.32-.58,.71-.58Zm0,.12c-.35,0-.63,.21-.63,.47s.28,.47,.63,.47,.63-.21,.63-.47-.28-.47-.63-.47Z"/><path class="cls-2" d="M9.5,16.57c.37,0,.67,.24,.67,.54s-.3,.54-.67,.54-.67-.24-.67-.54,.3-.54,.67-.54Zm0,.07c-.35,0-.63,.21-.63,.47s.28,.47,.63,.47,.63-.21,.63-.47-.28-.47-.63-.47Z"/><path class="cls-2" d="M9.5,16.16c.62,.07,.84,.36,.9,.78,.03,.25-.1,.34-.26,.53,.08-.13,.15-.19,.15-.35,0-.47-.34-.69-.8-.69s-.75,.26-.75,.73c0,.12,.03,.13,.08,.24-.11-.15-.18-.19-.18-.37,0-.52,.24-.8,.87-.87h0Z"/><path class="cls-1" d="M6.81,3.99s-.37,1.6-.33,1.77c.04,.17,.16,.15,.16,.15l4.47,1.42-.76-1.35"/><path class="cls-1" d="M19.7,3.44l-.16,1.82,1.71-.12s-1.56-1.7-1.54-1.7Z"/><path class="cls-1" d="M19.7,3.44l-.16,1.82-9.88,.52-2.84-1.78,12.89-.55Z"/><path class="cls-3" d="M6.49,5.81l.32,.27,3.79-.16,2.02-.13,2.03-.09,2.2-.1,1.92-.1,1.88-.1,.72-.06-.25-.33-4.28,.25-1.99,.1-2.19,.11-1.62,.07-1.51,.08s-3.04,.2-3.04,.19Z"/></svg>