<svg width="138" height="149" viewBox="0 0 138 149" fill="none" xmlns="http://www.w3.org/2000/svg">
<path d="M12.532 67.4607L123.102 67.7784L137.578 88.4149L0.96582 88.17L12.532 67.4607Z" fill="#E5AF83"/>
<path d="M46.504 92.2598L96.2439 92.5283C102.937 92.5734 109.63 92.6186 116.323 92.6636C116.042 93.8151 115.76 94.9666 115.479 96.118H73.1993C73.1993 96.118 25.8208 95.7581 24.9926 95.7219C24.1643 95.686 24.1664 95.254 24.1664 95.254C24.0084 94.3827 23.8504 93.5114 23.6924 92.6401C31.2963 92.5213 38.9003 92.3891 46.504 92.2598Z" fill="#62472D"/>
<path d="M0.96582 88.17L2.00582 92.3226C2.00582 92.3226 2.08238 92.7828 2.69442 92.8978C3.30669 93.0131 46.5038 92.2598 46.5038 92.2598L96.2437 92.5283L136.036 92.7968L137.578 88.4149L0.96582 88.17Z" fill="#B67F59"/>
<path d="M58.9967 122.617C59.1063 122.617 59.0665 122.617 59.1158 122.617C59.1158 122.617 81.957 123.558 85.9531 123.754C89.9495 123.951 92.4768 125.827 95.4039 127.218C98.331 128.609 104.576 128.649 104.836 128.605C105.096 128.562 105.421 128.736 105.421 128.736L107.047 135.647L110.126 146.167C110.126 146.167 105.985 146.472 102.212 146.385C98.4394 146.298 96.8348 144.15 93.7344 142.715C90.6337 141.281 86.3841 141.607 86.3841 141.607L81.7657 141.694L62.3166 141.911L51.1067 142.172C51.1067 142.172 47.811 141.976 43.496 144.128C39.1813 146.28 36.364 146.302 36.364 146.302C36.364 146.302 29.2074 146.345 28.9905 146.345C28.7738 146.345 28.752 146.215 28.752 146.215L32.4598 128.74C32.6381 127.887 33.5659 128.003 33.5659 128.003L37.138 127.963C37.138 127.963 41.6336 128.627 45.226 126.414C48.8184 124.201 51.1263 124.201 51.9491 124.1C52.0581 124.089 52.0918 124.084 52.2244 124.077C52.7131 124.049 53.2032 124.048 53.6924 124.049C54.243 124.051 54.7936 124.061 55.3437 124.076C54.9789 128.88 54.7152 133.691 54.4373 138.501L54.3352 140.824C54.3352 140.824 54.6077 140.38 54.744 140.038C54.8802 139.697 55.2211 139.082 55.8003 138.945C56.0973 138.861 56.3642 138.709 56.5753 138.481C56.6842 138.308 56.6791 138.329 56.7624 138.148C56.7852 138.099 56.7908 138.04 56.8271 137.999C56.8303 137.995 56.828 138.009 56.8285 138.015H56.8299H56.8289H56.8285C56.9667 134.439 57.1054 130.864 57.2481 127.289C57.2874 126.305 57.3267 125.322 57.3679 124.339C57.386 123.906 57.3947 123.47 57.4275 123.038C57.4552 122.902 57.4361 122.946 57.4584 122.896L57.4701 122.617C57.4375 122.688 57.4002 122.757 57.3616 122.825C57.3819 122.765 57.3919 122.643 57.4701 122.617H58.9967Z" fill="url(#paint0_linear_12_515648)"/>
<path d="M38.3006 95.8444C49.9338 95.9353 61.5669 96.0333 73.2001 96.118H100.04L96.9791 97.3502L95.9586 97.4524L95.6526 98.4753C95.6526 98.4753 95.4485 98.8334 95.0913 98.8334C94.7343 98.8334 90.9587 98.9866 88.7649 98.9355C86.5711 98.8844 82.7998 98.9866 80.9588 99.0379C79.118 99.089 67.2856 98.8334 65.0916 109.062C65.3979 116.785 77.3875 123.433 77.3875 123.433C82.5147 126.393 92.1028 133.954 85.3757 140.039C75.1898 140.248 65.0039 140.457 54.818 140.666C54.7563 140.65 54.6944 140.634 54.6325 140.618C54.6325 140.618 54.6325 139.544 55.6529 139.186C56.6734 138.828 56.8319 137.866 56.8293 138.015C56.8293 138.015 70.5104 138.796 70.704 132.332C70.8569 127.218 58.2984 122.48 58.2984 122.48C58.2984 122.48 47.0565 118.311 42.6701 115.152C38.8822 112.307 35.1915 107.581 35.3135 102.58C35.3766 99.9858 36.5657 97.7155 38.3006 95.8444Z" fill="#AE7E5A"/>
<path d="M57.8737 122.321C58.0145 122.374 58.1555 122.428 58.2965 122.48C58.2965 122.48 70.8549 127.218 70.7018 132.332C70.3655 137.519 62.1607 138.009 58.3691 138.043C57.8553 138.034 57.3414 138.025 56.8276 138.015H56.8271C56.9654 134.439 57.1041 130.864 57.2467 127.289C57.2861 126.306 57.3254 125.322 57.3666 124.339C57.385 123.906 57.3933 123.47 57.4262 123.038C57.4618 122.681 57.8178 122.324 57.8178 122.324C57.8429 122.323 57.8243 122.324 57.8737 122.321Z" fill="url(#paint1_linear_12_515648)"/>
<path d="M57.4718 122.617L57.4602 122.896C57.4378 122.946 57.4569 122.902 57.4295 123.038C57.3964 123.47 57.388 123.906 57.3696 124.339C57.3285 125.322 57.2891 126.305 57.2498 127.289C57.1071 130.864 56.9684 134.439 56.8302 138.015H56.8307H56.8316H56.8302C56.8298 138.009 56.8321 137.995 56.8288 137.999C56.7927 138.04 56.7869 138.099 56.7644 138.148C56.6808 138.329 56.6862 138.308 56.5773 138.481C56.3659 138.709 56.099 138.861 55.8021 138.945C55.2229 139.082 54.8822 139.697 54.7458 140.038C54.6094 140.38 54.3369 140.824 54.3369 140.824L54.4391 138.501C54.4391 138.501 55.2568 124.325 55.3592 123.984C55.4614 123.642 56.4837 123.608 56.8302 123.437C57.177 123.266 57.4718 122.617 57.4718 122.617Z" fill="url(#paint2_linear_12_515648)"/>
<path d="M54.8618 131.292C54.7177 133.695 54.5727 136.098 54.4352 138.501C54.4033 139.223 54.3717 139.944 54.34 140.666H54.333L53.515 140.175C53.515 140.175 53.3789 139.662 53.3789 139.423C53.3789 139.184 53.5832 138.296 53.5832 138.296L54.0263 131.464C54.3007 131.391 54.5832 131.345 54.8618 131.292Z" fill="#E5AF83" fill-opacity="0.241"/>
<path opacity="0.217" d="M53.6939 124.05C54.2445 124.051 54.7951 124.061 55.3452 124.076C54.9987 128.944 55.1625 126.478 54.856 131.475C54.5805 131.471 54.3052 131.468 54.0299 131.464C54.0299 131.464 52.3602 131.572 50.9213 131.616C49.4827 131.66 45.7539 132.796 43.9892 133.451C42.2243 134.107 38.452 134.544 37.8851 134.544C37.3185 134.544 33.8305 134.719 33.4817 134.675C33.4137 134.669 33.4223 134.669 33.3234 134.668C33.0821 134.666 32.8399 134.676 32.599 134.686C32.1273 134.706 31.6558 134.73 31.1846 134.757C31.61 132.751 32.0356 130.745 32.4612 128.74C32.6395 127.887 33.5673 128.003 33.5673 128.003L37.1395 127.963C37.1395 127.963 41.6351 128.627 45.2275 126.414C48.8199 124.201 51.1277 124.201 51.9506 124.1C52.0595 124.089 52.0933 124.084 52.2259 124.077C52.7146 124.049 53.2047 124.048 53.6939 124.05Z" fill="url(#paint3_linear_12_515648)"/>
<path d="M87.2721 141.576C89.4697 141.567 91.7063 141.823 93.7342 142.715C96.8348 144.15 98.4392 146.298 102.212 146.385C104.831 146.425 107.454 146.355 110.067 146.171C110.087 146.229 110.107 146.287 110.126 146.345L109.61 148.309L105.064 148.552C105.064 148.552 99.3656 148.879 94.9808 146.185C90.5962 143.491 87.6461 143.856 87.6461 143.856L78.4928 143.937C78.4928 143.937 62.2672 144.301 58.6099 144.362C54.9528 144.423 51.0125 144.524 49.0121 144.808C47.0116 145.091 41.8987 147.655 40.535 148.051C39.1715 148.446 34.1481 148.554 34.1481 148.554C34.1481 148.554 29.8066 148.554 29.3761 148.518C28.9453 148.482 28.752 148.195 28.752 148.195V146.215C28.7782 146.321 28.8995 146.338 28.9903 146.345C29.2071 146.345 36.3638 146.302 36.3638 146.302C36.3638 146.302 39.181 146.28 43.4958 144.128C47.8108 141.976 51.1065 142.172 51.1065 142.172L62.3163 141.911L81.7654 141.694L86.3839 141.607C86.6794 141.586 86.9759 141.581 87.2721 141.576Z" fill="url(#paint4_linear_12_515648)"/>
<path opacity="0.263" d="M85.9941 123.757C89.4688 123.855 92.377 125.74 95.4032 127.218C98.3303 128.609 104.575 128.649 104.835 128.605C105.095 128.562 105.421 128.736 105.421 128.736C105.862 130.612 106.304 132.489 106.745 134.366C106.705 134.353 106.72 134.353 106.699 134.354C106.699 134.354 104.262 134.08 103.598 134.236C102.933 134.393 98.2847 133.288 96.7614 132.975C95.2378 132.662 91.4094 131.174 90.3938 131.056C89.378 130.939 87.5031 131.056 87.5031 131.056C87.4526 131.123 87.4021 131.19 87.3516 131.256C86.8992 128.756 86.4465 126.257 85.9941 123.757Z" fill="url(#paint5_linear_12_515648)"/>
<path d="M68.841 102.645C69.2315 103.102 69.622 103.558 70.0125 104.015L72.6237 106.18C72.6237 106.18 77.0781 109.621 78.9941 111.101C80.91 112.581 82.3077 113.907 83.2613 114.924C84.215 115.942 85.0148 118.286 85.0148 118.286L85.8147 122.449C85.8147 122.449 86.4297 126.057 86.8298 128.462C87.1619 130.556 87.4113 132.663 87.6429 134.771C86.9627 129.886 81.2828 125.708 77.3858 123.433C77.3858 123.433 65.3961 116.785 65.0898 109.062C65.6065 106.556 66.9001 104.306 68.841 102.645Z" fill="#D09A6F"/>
<path opacity="0.177" d="M68.8412 102.645C69.2317 103.102 69.6222 103.558 70.0124 104.015L72.624 106.18C72.624 106.18 77.0783 109.62 78.9943 111.101C80.1625 112.009 81.2993 112.964 82.3551 114.003C82.9351 117.147 83.515 120.29 84.0952 123.434C84.0952 123.434 81.7156 121.72 73.0163 117.471C68.5312 115.313 66.2297 111.084 66.0742 106.219C66.7174 104.833 67.7107 103.655 68.8412 102.645Z" fill="url(#paint6_linear_12_515648)"/>
<path opacity="0.636" d="M55.7492 95.905L73.1991 96.0394H100.039L96.9781 97.2716L95.9576 97.3738L95.6516 98.3967C95.6516 98.3967 95.4475 98.7548 95.0903 98.7548C94.7333 98.7548 90.9577 98.908 88.7639 98.8569C86.5701 98.8059 82.7988 98.908 80.9578 98.9594C76.5816 99.0207 71.8598 99.7831 68.5113 102.849C66.8397 104.38 65.8404 106.302 65.2158 108.459C55.8814 108.667 46.5468 108.874 37.2124 109.082C35.9969 107.044 35.3106 104.884 35.3125 102.501C35.3756 99.9072 36.5647 97.6369 38.2996 95.7658L55.7492 95.905Z" fill="url(#paint7_linear_12_515648)"/>
<path opacity="0.187" d="M88.0533 143.839C90.5347 143.896 92.8816 144.928 94.9805 146.185C95.5499 146.55 96.1708 146.816 96.7984 147.06C95.1857 146.681 93.5444 146.369 91.8833 146.345H85.9942C85.9942 146.345 67.5386 147.003 61.0766 147.154C54.6145 147.305 38.5349 148.554 38.5349 148.554C38.5033 148.523 38.6145 148.364 38.6389 148.325C39.2738 148.264 39.9154 148.213 40.5346 148.051C41.8981 147.655 47.0113 145.091 49.0117 144.808C51.0121 144.524 54.9524 144.423 58.6096 144.362C62.2669 144.301 78.4924 143.937 78.4924 143.937L87.6458 143.856C87.781 143.841 87.9174 143.841 88.0533 143.839Z" fill="url(#paint8_linear_12_515648)"/>
<path opacity="0.488" d="M57.8746 122.321C58.0154 122.374 58.1564 122.428 58.2975 122.48C61.4873 123.762 64.6375 125.273 67.381 127.369C68.6944 128.372 70.1356 129.697 70.5748 131.357C70.4819 131.393 70.3909 131.435 70.2962 131.466C69.2518 131.815 67.6926 131.886 66.6016 131.919C65.6566 131.948 64.8986 131.952 63.9503 131.942C61.6569 131.916 59.364 131.799 57.0762 131.643L57.2477 127.289C57.287 126.305 57.3263 125.322 57.3675 124.339C57.3859 123.906 57.3943 123.47 57.4273 123.038C57.4627 122.681 57.8188 122.324 57.8188 122.324C57.8439 122.323 57.8253 122.324 57.8746 122.321Z" fill="url(#paint9_linear_12_515648)"/>
<path d="M1.78953 88.0522C1.85585 88.0522 1.85585 88.0522 2.17909 88.0529C2.62683 88.0536 2.62683 88.0536 3.31497 88.0547C5.03938 88.058 5.03938 88.058 7.626 88.0626C13.9931 88.0741 13.9931 88.0741 23.0128 88.0904C38.3792 88.1182 53.7458 88.1457 69.1121 88.1735C84.8734 88.2019 100.634 88.2304 116.396 88.2588C125.416 88.2749 125.416 88.2749 131.783 88.2866C134.369 88.2913 134.369 88.2913 136.094 88.2943C136.782 88.2955 136.782 88.2955 137.229 88.2964C137.553 88.2969 137.553 88.2969 137.619 88.2971L137.619 88.6113C137.552 88.6113 137.552 88.6113 137.229 88.6106C136.781 88.6099 136.781 88.6099 136.093 88.6088C134.369 88.6055 134.369 88.6055 131.782 88.6008C125.415 88.5894 125.415 88.5894 116.395 88.5731C101.029 88.5455 85.6625 88.5178 70.296 88.49C54.5349 88.4616 38.7736 88.4331 23.0124 88.4046C13.9924 88.3885 13.9924 88.3885 7.6253 88.3769C5.03869 88.3722 5.03868 88.3722 3.31427 88.3692C2.62637 88.368 2.62637 88.368 2.17863 88.3671C1.85539 88.3666 1.85539 88.3666 1.78906 88.3664L1.78953 88.0522Z" fill="url(#paint10_linear_12_515648)"/>
<path opacity="0.203" d="M37.1915 81.5028C37.1915 81.5028 37.2948 78.9377 39.2953 78.804C41.2957 78.6701 54.334 81.0573 61.6412 81.8525C71.3458 82.9086 74.7314 82.1175 81.4747 80.262C96.5232 76.1209 104.085 67.8038 104.085 67.6701C104.085 67.5365 92.2997 67.3475 92.2997 67.3475L34.3945 77.9549L37.1915 81.5028Z" fill="url(#paint11_linear_12_515648)"/>
<path d="M70.5812 47.5576L70.5865 47.5585L70.6142 47.5919C71.8204 49.1455 72.5599 50.9698 72.8015 52.919C73.1371 55.8978 73.0023 64.4019 66.9061 67.3328C60.81 70.2635 47.4466 68.4379 43.1809 68.3418C38.915 68.2457 33.5214 70.508 33.4511 72.6658C33.4395 73.1289 33.5074 73.5924 33.6336 74.0373C33.6585 74.1714 33.6973 74.3023 33.7376 74.4327C33.7702 74.5314 33.8074 74.6289 33.8512 74.7231C34.3562 76.074 35.1111 77.3286 35.9768 78.4782C36.4378 79.461 36.822 80.4914 37.1932 81.5115C32.1065 80.5534 29.0449 82.966 29.0449 82.966C29.0449 82.966 24.0011 75.9952 24.8465 73.3514C27.1308 66.2068 37.323 64.7425 37.8641 64.5391C38.4051 64.3357 39.2166 63.8274 39.2166 63.8274L49.2927 62.0309L58.05 60.404C58.05 60.404 61.5246 60.6163 65.7607 58.4144C71.0633 55.6584 70.4462 49.8647 70.4462 49.8647C70.469 49.2617 70.4916 48.6584 70.529 48.0561C70.5383 47.9063 70.5379 47.7071 70.5812 47.5576Z" fill="url(#paint12_linear_12_515648)"/>
<path d="M16.9678 4.71344C16.9678 4.71344 14.5362 15.2471 14.828 16.3398C15.1196 17.4325 15.8492 17.303 15.8492 17.303L36.4607 27.6172L40.2583 17.809" fill="#3D372F"/>
<path d="M111.571 13.5318L105.597 33.5606C105.597 33.5606 104.61 37.4013 104.497 38.1966C104.383 38.9916 104.087 49.5572 99.254 58.4125C94.4203 67.2677 86.5866 74.1896 79.2112 77.7102C71.8358 81.2309 69.0856 81.2607 54.1265 79.5482C39.1674 77.8355 47.2244 77.874 39.8469 77.7266C36.5652 77.661 36.0746 78.6053 36.0746 78.6053C36.0746 78.6053 33.3684 75.2053 33.4512 72.6658C33.5215 70.5082 38.9151 68.2456 43.181 68.3418C47.4466 68.4379 60.81 70.2635 66.9062 67.3328C73.0024 64.4019 73.1371 55.8977 72.8016 52.919C72.466 49.94 70.8526 44.2905 55.8744 37.3129C40.8964 30.3351 16.9688 18.4712 16.9688 18.4712C16.9688 18.4712 111.434 13.1572 111.571 13.5318Z" fill="url(#paint13_linear_12_515648)"/>
<path d="M24.7939 74.5969C24.7939 74.5969 24.8261 82.206 26.7408 85.2573C27.6372 83.9182 28.7371 83.332 29.0482 83.0752C29.3591 82.8186 25.7967 78.9681 24.7939 74.5969Z" fill="#1C1B17"/>
<path d="M101.688 1.07242L100.608 13.0601L111.847 12.2581C111.847 12.2581 101.568 1.11254 101.688 1.07242Z" fill="#161912"/>
<path d="M101.69 1.07242L100.61 13.0601L35.6278 16.448L16.9688 4.71343L101.69 1.07242Z" fill="url(#paint14_linear_12_515648)"/>
<path d="M17.7479 4.54056C17.9348 4.54849 18.685 4.45144 18.8458 4.54056L39.7413 17.5759C40.2563 17.8967 40.4143 18.5753 40.0943 19.0913C39.7743 19.6076 39.0976 19.7659 38.5826 19.4454L17.0993 6.06433C16.5843 5.74381 16.9692 5.31107 16.9692 4.71342C16.9692 5.18324 17.2948 4.55782 17.7479 4.54056Z" fill="url(#paint15_linear_12_515648)"/>
<path d="M15.7549 17.299L16.9683 18.4712L41.9078 17.4016L55.206 16.5471L68.5722 15.966L83.0298 15.2825L95.6799 14.5988L108.023 13.9493L112.729 13.5392L111.95 12.2581L83.7798 13.9153L70.7204 14.5988L56.3312 15.3509L45.6587 15.8293L35.7292 16.3397C35.7292 16.3397 15.7549 17.3333 15.7549 17.299Z" fill="url(#paint16_linear_12_515648)"/>
<path d="M17.1445 3.92211L55.9288 2.1268L81.1546 1.07238L101.194 0L101.69 0.804811V1.07238L73.9104 2.22175L57.7375 2.95447L46.3608 3.3942L33.1415 3.95127L16.9688 4.71339C16.9688 4.71339 17.1445 3.89972 17.1445 3.92211Z" fill="#B3A890"/>
<path d="M111.571 13.5318L105.597 33.5606C105.597 33.5606 104.61 37.4013 104.497 38.1966C104.383 38.9916 104.087 49.5572 99.254 58.4125C94.4203 67.2677 86.5866 74.1896 79.2112 77.7102C71.8358 81.2309 69.0856 81.2607 54.1265 79.5482C39.1674 77.8355 47.2244 77.874 39.8469 77.7266C36.5652 77.661 36.0746 78.6053 36.0746 78.6053C36.0746 78.6053 33.3684 75.2053 33.4512 72.6658C33.5215 70.5082 38.9151 68.2456 43.181 68.3418C47.4466 68.4379 60.81 70.2635 66.9062 67.3328C73.0024 64.4019 73.1371 55.8977 72.8016 52.919C72.466 49.94 70.8526 44.2905 55.8744 37.3129C40.8964 30.3351 16.9688 18.4712 16.9688 18.4712C16.9688 18.4712 111.434 13.1572 111.571 13.5318Z" fill="url(#paint17_linear_12_515648)"/>
<path d="M71.7048 49.1054C72.365 50.2898 72.731 51.6134 72.9188 52.9494C73.1537 55.0337 73.0222 57.7663 72.381 60.2032C71.4949 63.5708 69.7442 66.1138 66.9795 67.443C64.5325 68.6194 60.8112 69.1167 55.9577 69.1093C53.6401 69.1056 51.3085 68.9961 48.2579 68.7825C47.7522 68.747 45.8123 68.6054 45.3676 68.5748C44.3967 68.5077 43.7351 68.4713 43.2185 68.4596C38.8963 68.3623 33.636 70.6534 33.569 72.7071C33.5496 73.1632 33.6392 73.612 33.7477 74.052L33.5436 73.8782C33.431 73.4963 33.4186 73.0969 33.4121 72.7027C33.4831 70.5295 38.8239 68.2035 43.2222 68.3024C43.7416 68.3143 44.4053 68.3507 45.3785 68.4178C45.8235 68.4486 47.7634 68.59 48.2688 68.6255C51.3162 68.8391 53.6445 68.9483 55.9579 68.9521C60.7895 68.9595 64.4916 68.4647 66.9118 67.3011C69.6297 65.9945 71.3541 63.4898 72.2293 60.1633C72.8653 57.7463 72.9956 55.033 72.7632 52.968C72.6282 51.7121 72.2128 50.5221 71.6671 49.3916C71.6997 49.1444 71.6871 49.2398 71.7048 49.1054Z" fill="url(#paint18_linear_12_515648)"/>
<path d="M111.571 13.5318L105.597 33.5606C105.597 33.5606 104.61 37.4013 104.497 38.1966C104.383 38.9916 104.087 49.5572 99.254 58.4125C94.4203 67.2677 86.5866 74.1896 79.2112 77.7102C71.8358 81.2309 69.0856 81.2607 54.1265 79.5482C39.1674 77.8355 47.2244 77.874 39.8469 77.7266C36.5652 77.661 36.0746 78.6053 36.0746 78.6053C36.0746 78.6053 33.3684 75.2053 33.4512 72.6658C33.5215 70.5082 38.9151 68.2456 43.181 68.3418C47.4466 68.4379 60.81 70.2635 66.9062 67.3328C73.0024 64.4019 73.1371 55.8977 72.8016 52.919C72.466 49.94 70.8526 44.2905 55.8744 37.3129C40.8964 30.3351 16.9688 18.4712 16.9688 18.4712C16.9688 18.4712 111.434 13.1572 111.571 13.5318Z" fill="url(#paint19_linear_12_515648)"/>
<path d="M34.6415 96.2855C29.5812 96.2855 25.5266 93.2884 25.4789 89.0163C25.434 85.0018 29.6263 81.2309 34.6867 81.2309C39.747 81.2309 43.7525 84.5029 43.7856 89.0287C43.8151 93.0434 39.7019 96.2855 34.6415 96.2855Z" fill="url(#paint20_linear_12_515648)"/>
<path d="M34.6867 81.2309C39.7473 81.2309 43.7525 84.5029 43.7856 89.0287L43.7825 89.1535C43.6036 84.2127 39.1688 81.7562 34.6867 81.6683C30.5674 81.6905 25.5841 84.4865 25.4819 89.091L25.4789 89.0163C25.434 85.0018 29.6263 81.2309 34.6867 81.2309Z" fill="#68513D"/>
<path d="M34.632 94.0218C32.3493 94.0218 30.499 92.6491 30.499 90.956C30.499 89.2629 32.3493 87.8903 34.632 87.8903C36.9145 87.8903 38.7648 89.2629 38.7648 90.956C38.7648 92.6491 36.9145 94.0218 34.632 94.0218Z" fill="url(#paint21_linear_12_515648)"/>
<path d="M34.6557 87.1141C37.2409 87.1141 39.3365 88.8287 39.3365 90.9439C39.3365 93.0592 37.2409 94.7738 34.6557 94.7738C32.0704 94.7738 29.9746 93.0592 29.9746 90.9439C29.9746 88.8287 32.0704 87.1141 34.6557 87.1141ZM34.6317 87.8903C32.349 87.8903 30.4987 89.2629 30.4987 90.956C30.4987 92.6491 32.349 94.0217 34.6317 94.0217C36.9142 94.0217 38.7645 92.6491 38.7645 90.956C38.7645 89.2629 36.9142 87.8903 34.6317 87.8903Z" fill="url(#paint22_linear_12_515648)"/>
<path d="M34.6537 87.4284C37.074 87.4284 39.036 89.0077 39.036 90.956C39.036 92.9042 37.074 94.4835 34.6537 94.4835C32.2335 94.4835 30.2715 92.9042 30.2715 90.956C30.2715 89.0077 32.2335 87.4284 34.6537 87.4284ZM34.5965 87.8903C32.314 87.8903 30.4637 89.2629 30.4637 90.956C30.4637 92.6492 32.314 94.0218 34.5965 94.0218C36.8789 94.0218 38.7293 92.6492 38.7293 90.956C38.7293 89.2629 36.8789 87.8903 34.5965 87.8903Z" fill="url(#paint23_linear_12_515648)"/>
<path d="M34.6822 84.7191C38.7729 85.1875 40.2322 87.1142 40.5871 89.8508C40.8003 91.4942 39.9311 92.0975 38.8892 93.3565C39.4464 92.4885 39.852 92.0891 39.8776 91.0701C39.8776 87.9694 37.6642 86.503 34.5989 86.503C31.5338 86.503 29.6484 88.2234 29.6484 91.3242C29.64 92.1103 29.8446 92.1787 30.1457 92.8993C29.4206 91.881 28.9728 91.6724 28.9414 90.4351C28.9414 86.998 30.5232 85.1903 34.6727 84.7219L34.6822 84.7191Z" fill="url(#paint24_linear_12_515648)"/>
<defs>
<linearGradient id="paint0_linear_12_515648" x1="28.752" y1="134.509" x2="110.126" y2="134.509" gradientUnits="userSpaceOnUse">
<stop offset="0.021" stop-color="#7A5D41"/>
<stop offset="0.507" stop-color="#E9B386"/>
<stop offset="1" stop-color="#A3795C"/>
</linearGradient>
<linearGradient id="paint1_linear_12_515648" x1="56.8271" y1="130.182" x2="70.7032" y2="130.182" gradientUnits="userSpaceOnUse">
<stop stop-color="#AA7C5A"/>
<stop offset="1" stop-color="#7E563C"/>
</linearGradient>
<linearGradient id="paint2_linear_12_515648" x1="54.3369" y1="131.641" x2="57.4718" y2="131.799" gradientUnits="userSpaceOnUse">
<stop stop-color="#442E24"/>
<stop offset="0.508" stop-color="#AD8364"/>
<stop offset="1" stop-color="#342415"/>
</linearGradient>
<linearGradient id="paint3_linear_12_515648" x1="33.3693" y1="132.474" x2="53.1688" y2="126.359" gradientUnits="userSpaceOnUse">
<stop stop-color="#46311D"/>
<stop offset="0.372" stop-color="#110A03"/>
</linearGradient>
<linearGradient id="paint4_linear_12_515648" x1="28.752" y1="145.07" x2="110.126" y2="145.07" gradientUnits="userSpaceOnUse">
<stop stop-color="#7B5640"/>
<stop offset="0.354" stop-color="#AC7E5A"/>
<stop offset="0.639" stop-color="#A37555"/>
<stop offset="0.818" stop-color="#966C4B"/>
<stop offset="1" stop-color="#9D7457"/>
</linearGradient>
<linearGradient id="paint5_linear_12_515648" x1="85.9941" y1="129.061" x2="106.745" y2="129.061" gradientUnits="userSpaceOnUse">
<stop stop-color="#704F37"/>
<stop offset="0.622" stop-color="#21160C"/>
</linearGradient>
<linearGradient id="paint6_linear_12_515648" x1="66.0742" y1="113.04" x2="84.0952" y2="113.04" gradientUnits="userSpaceOnUse">
<stop stop-color="#24180F"/>
<stop offset="0.45" stop-color="#5B402A"/>
<stop offset="0.523" stop-color="#705138"/>
<stop offset="0.625" stop-color="#74563C"/>
<stop offset="1" stop-color="#805D40"/>
</linearGradient>
<linearGradient id="paint7_linear_12_515648" x1="67.6758" y1="109.082" x2="67.6758" y2="95.7658" gradientUnits="userSpaceOnUse">
<stop stop-color="#815B3D"/>
<stop offset="0.808" stop-color="#815B3D"/>
<stop offset="1" stop-color="#24190F"/>
</linearGradient>
<linearGradient id="paint8_linear_12_515648" x1="38.5263" y1="143.712" x2="102.102" y2="143.712" gradientUnits="userSpaceOnUse">
<stop stop-color="#151514" stop-opacity="0.448"/>
<stop offset="0.764" stop-color="#181716" stop-opacity="0.599"/>
<stop offset="1" stop-color="#191817"/>
</linearGradient>
<linearGradient id="paint9_linear_12_515648" x1="56.8281" y1="130.182" x2="70.7042" y2="130.182" gradientUnits="userSpaceOnUse">
<stop stop-color="#1B0F06"/>
<stop offset="1" stop-color="#4D3724"/>
</linearGradient>
<linearGradient id="paint10_linear_12_515648" x1="1.74997" y1="88.2924" x2="137.58" y2="88.2924" gradientUnits="userSpaceOnUse">
<stop stop-color="#E6CAA0"/>
<stop offset="0.655" stop-color="#FFF9D4"/>
<stop offset="1" stop-color="#E5AF83"/>
</linearGradient>
<linearGradient id="paint11_linear_12_515648" x1="34.3908" y1="66.9416" x2="110.428" y2="66.9416" gradientUnits="userSpaceOnUse">
<stop stop-color="#151514" stop-opacity="0.448"/>
<stop offset="0.764" stop-color="#181716" stop-opacity="0.599"/>
<stop offset="1" stop-color="#191817"/>
</linearGradient>
<linearGradient id="paint12_linear_12_515648" x1="24.7509" y1="65.2613" x2="73.0023" y2="65.2613" gradientUnits="userSpaceOnUse">
<stop stop-color="#433F39"/>
<stop offset="0.264" stop-color="#262521"/>
<stop offset="0.501" stop-color="#2A251F"/>
<stop offset="0.776" stop-color="#3E3932"/>
<stop offset="0.988" stop-color="#1C1B17"/>
</linearGradient>
<linearGradient id="paint13_linear_12_515648" x1="87.9203" y1="76.1578" x2="40.4816" y2="18.123" gradientUnits="userSpaceOnUse">
<stop offset="0.012" stop-color="#1C1B17"/>
<stop offset="0.499" stop-color="#2A251F"/>
<stop offset="0.736" stop-color="#262521"/>
<stop offset="1" stop-color="#433F39"/>
</linearGradient>
<linearGradient id="paint14_linear_12_515648" x1="17.6124" y1="7.42529" x2="101.046" y2="10.0823" gradientUnits="userSpaceOnUse">
<stop offset="0.745" stop-color="#5F5647"/>
<stop offset="1" stop-color="#1E1C16"/>
</linearGradient>
<linearGradient id="paint15_linear_12_515648" x1="32.552" y1="4.95836" x2="24.5095" y2="19.139" gradientUnits="userSpaceOnUse">
<stop offset="0.431" stop-color="#5F5647"/>
<stop offset="0.498" stop-color="#706862"/>
<stop offset="0.578" stop-color="#3D372F"/>
</linearGradient>
<linearGradient id="paint16_linear_12_515648" x1="15.7549" y1="15.3646" x2="112.729" y2="15.3646" gradientUnits="userSpaceOnUse">
<stop stop-color="#635B52"/>
<stop offset="0.21" stop-color="#595044"/>
<stop offset="0.424" stop-color="#3E3931"/>
<stop offset="0.605" stop-color="#67635D"/>
<stop offset="0.786" stop-color="#6D6760"/>
<stop offset="1" stop-color="#5E5956"/>
</linearGradient>
<linearGradient id="paint17_linear_12_515648" x1="21.4006" y1="32.8962" x2="107.18" y2="61.1483" gradientUnits="userSpaceOnUse">
<stop offset="0.184" stop-color="#141311"/>
<stop offset="0.543" stop-color="#433F39" stop-opacity="0"/>
</linearGradient>
<linearGradient id="paint18_linear_12_515648" x1="73.0273" y1="61.5788" x2="33.4121" y2="61.5788" gradientUnits="userSpaceOnUse">
<stop stop-color="#29241E"/>
<stop offset="0.212" stop-color="#4F4637"/>
<stop offset="0.639" stop-color="#B3A890"/>
<stop offset="1" stop-color="#292824"/>
</linearGradient>
<linearGradient id="paint19_linear_12_515648" x1="44.2796" y1="16.6582" x2="84.3954" y2="77.4208" gradientUnits="userSpaceOnUse">
<stop offset="0.453" stop-color="#292017" stop-opacity="0"/>
<stop offset="0.999" stop-color="#302B21"/>
</linearGradient>
<linearGradient id="paint20_linear_12_515648" x1="26.3362" y1="85.5771" x2="42.9385" y2="91.9127" gradientUnits="userSpaceOnUse">
<stop stop-color="#433F39"/>
<stop offset="0.173" stop-color="#262521"/>
<stop offset="0.423" stop-color="#2A251F"/>
<stop offset="0.776" stop-color="#3E3932"/>
<stop offset="0.988" stop-color="#1C1B17"/>
</linearGradient>
<linearGradient id="paint21_linear_12_515648" x1="35.3497" y1="87.9369" x2="33.9077" y2="93.9735" gradientUnits="userSpaceOnUse">
<stop offset="0.254" stop-color="#020200"/>
<stop offset="0.988" stop-color="#545446"/>
</linearGradient>
<linearGradient id="paint22_linear_12_515648" x1="32.3153" y1="94.2609" x2="37.0112" y2="87.6378" gradientUnits="userSpaceOnUse">
<stop stop-color="#4E392D"/>
<stop offset="0.494" stop-color="#7E6C5F"/>
<stop offset="1" stop-color="#514540"/>
</linearGradient>
<linearGradient id="paint23_linear_12_515648" x1="30.2715" y1="90.956" x2="39.036" y2="90.956" gradientUnits="userSpaceOnUse">
<stop stop-color="#4E392D"/>
<stop offset="0.494" stop-color="#7E6C5F"/>
<stop offset="1" stop-color="#514540"/>
</linearGradient>
<linearGradient id="paint24_linear_12_515648" x1="31.861" y1="92.778" x2="37.7176" y2="85.3114" gradientUnits="userSpaceOnUse">
<stop stop-color="#482C22"/>
<stop offset="0.414" stop-color="#7C5E52"/>
<stop offset="0.731" stop-color="#574A45"/>
<stop offset="1" stop-color="#372218"/>
</linearGradient>
</defs>
</svg>
